<svg id="Layer_1" data-name="Layer 1" xmlns="http://www.w3.org/2000/svg" viewBox="0 0 105 105"><defs><style>.cls-1{fill:#85d5f7;}</style></defs><title>Emergency-service</title><path class="cls-1" d="M74.77,11.12c-11.26,0-18.48,7.8-22.27,14.82-3.79-7-11-14.82-22.27-14.82C16,11.12,5,22.71,5,38.08A28.91,28.91,0,0,0,7.28,49.35H28.51l4.8-9.6a2.9,2.9,0,0,1,5,0L46.93,57,50,50.88a2.9,2.9,0,0,1,5,0L58.07,57l8.64-17.29a2.9,2.9,0,0,1,5,0l4.8,9.6H97.72A28.91,28.91,0,0,0,100,38.08c0-15.37-11-27-25.23-27Zm0,0"/><path class="cls-1" d="M74.77,54.91a2.76,2.76,0,0,1-2.49-1.54L69.2,47.22,60.56,64.51a2.79,2.79,0,0,1-5,0L52.5,58.35l-3.08,6.16a2.9,2.9,0,0,1-5,0L35.8,47.22l-3.08,6.15a2.76,2.76,0,0,1-2.49,1.54h-20c5.73,9,16.05,17.58,29,28.47,3.63,3.06,7.48,6.31,11.53,9.82a2.78,2.78,0,0,0,3.64,0c4-3.51,7.9-6.76,11.53-9.82,12.9-10.89,23.22-19.45,29-28.47Zm0,0"/></svg>