<svg id="Layer_1" data-name="Layer 1" xmlns="http://www.w3.org/2000/svg" viewBox="0 0 105 105"><defs><style>.cls-1{fill:#85d5f7;}</style></defs><title>Emergency-service</title><path class="cls-1" d="M100.5,13a3.24,3.24,0,0,0-2.38-1H37.29a3.43,3.43,0,0,0-3.38,3.38V32.22H25.47a8.23,8.23,0,0,0-3.07.69,8.11,8.11,0,0,0-2.69,1.69L9.26,45.05a7.9,7.9,0,0,0-1.69,2.7,8.18,8.18,0,0,0-.69,3.06v22a3.24,3.24,0,0,0-2.38,1,3.32,3.32,0,0,0,0,4.75,3.24,3.24,0,0,0,2.38,1h6.76a13,13,0,0,0,4,9.56,13,13,0,0,0,9.56,4,13,13,0,0,0,9.55-4,13,13,0,0,0,4-9.56H61A13.51,13.51,0,0,0,84,89.09a13,13,0,0,0,4-9.56H98.12a3.24,3.24,0,0,0,2.38-1,3.28,3.28,0,0,0,1-2.37V15.33a3.24,3.24,0,0,0-1-2.38ZM31.93,84.31a6.75,6.75,0,0,1-9.55,0,6.76,6.76,0,0,1,4.77-11.53,6.75,6.75,0,0,1,4.78,11.53Zm2-31.81H13.64V50.92a3.87,3.87,0,0,1,.47-1.16l10.3-10.3A2.16,2.16,0,0,1,25.57,39h8.34V52.5ZM79.24,84.31a6.75,6.75,0,1,1,2-4.78,6.5,6.5,0,0,1-2,4.78ZM88,44.05a1.61,1.61,0,0,1-1.69,1.69H74.47V57.57a1.64,1.64,0,0,1-1.69,1.69H62.64A1.63,1.63,0,0,1,61,57.57V45.74H49.12a1.67,1.67,0,0,1-1.21-.47,1.64,1.64,0,0,1-.48-1.22V33.91a1.64,1.64,0,0,1,1.69-1.69H61V20.4a1.61,1.61,0,0,1,1.69-1.69H72.78a1.67,1.67,0,0,1,1.21.47,1.64,1.64,0,0,1,.48,1.22V32.22H86.29a1.64,1.64,0,0,1,1.22.48A1.67,1.67,0,0,1,88,33.91Zm0,0"/></svg>