<svg id="Layer_1" data-name="Layer 1" xmlns="http://www.w3.org/2000/svg" viewBox="0 0 105 105"><defs><style>.cls-1{fill:#85d5f7;}</style></defs><title>Emergency-service</title><path class="cls-1" d="M85.45,60.86h-33L47.58,65.7h9.25V95.14H34.3A14.73,14.73,0,0,1,20.06,84.06h-.53A23.61,23.61,0,0,1,15,83.63,19.57,19.57,0,0,0,34.3,100H85.45a19.56,19.56,0,0,0,0-39.11ZM81,94.89H64.8a2.07,2.07,0,1,1,0-4.14H81a2.07,2.07,0,1,1,0,4.14Zm8.27,0h-.81a2.07,2.07,0,1,1,0-4.14h.81a2.07,2.07,0,0,1,0,4.14ZM69.53,10.73a19.63,19.63,0,0,0-27.66,0L5.7,46.9A19.56,19.56,0,0,0,33.36,74.55L69.53,38.39a19.63,19.63,0,0,0,0-27.66ZM29.94,71.13A14.71,14.71,0,0,1,9.13,50.32L25.06,34.39,45.87,55.2ZM62.78,37.94,51.34,49.39a2.08,2.08,0,0,1-2.94,0,2.07,2.07,0,0,1,0-2.93L59.85,35a2.07,2.07,0,0,1,2.93,2.93Zm5.84-5.83-.56.56a2.08,2.08,0,0,1-2.94,0,2.07,2.07,0,0,1,0-2.93l.57-.57a2.08,2.08,0,1,1,2.93,2.94Zm0,0"/></svg>